<svg width="54" height="44" viewBox="0 0 54 44" fill="none" xmlns="http://www.w3.org/2000/svg">
<rect x="0.5" y="6.61765" width="53" height="30.7647" fill="white" stroke="#B916EC"/>
<line x1="2.2931" y1="7.11765" x2="2.2931" y2="-1.40685e-06" stroke="#D100FC"/>
<line x1="7.67242" y1="7.11765" x2="7.67242" y2="-1.40685e-06" stroke="#D100FC"/>
<line x1="13.0517" y1="7.11765" x2="13.0517" y2="-1.40685e-06" stroke="#D100FC"/>
<line x1="18.431" y1="7.11765" x2="18.431" y2="-1.40685e-06" stroke="#D100FC"/>
<line x1="23.8103" y1="7.11765" x2="23.8103" y2="-1.40685e-06" stroke="#D100FC"/>
<line x1="29.1897" y1="7.11765" x2="29.1897" y2="-1.40685e-06" stroke="#D100FC"/>
<line x1="34.569" y1="7.11765" x2="34.569" y2="-1.40685e-06" stroke="#D100FC"/>
<line x1="39.9483" y1="7.11765" x2="39.9483" y2="-1.40685e-06" stroke="#D100FC"/>
<line x1="45.3276" y1="7.11765" x2="45.3276" y2="-1.40685e-06" stroke="#D100FC"/>
<line x1="50.7069" y1="7.11765" x2="50.7069" y2="-1.40685e-06" stroke="#D100FC"/>
<line x1="2.2931" y1="44" x2="2.2931" y2="36.8824" stroke="#D100FC"/>
<line x1="7.67242" y1="44" x2="7.67242" y2="36.8824" stroke="#D100FC"/>
<line x1="13.0517" y1="44" x2="13.0517" y2="36.8824" stroke="#D100FC"/>
<line x1="18.431" y1="44" x2="18.431" y2="36.8824" stroke="#D100FC"/>
<line x1="23.8103" y1="44" x2="23.8103" y2="36.8824" stroke="#D100FC"/>
<line x1="29.1897" y1="44" x2="29.1897" y2="36.8824" stroke="#D100FC"/>
<line x1="34.569" y1="44" x2="34.569" y2="36.8824" stroke="#D100FC"/>
<line x1="39.9483" y1="44" x2="39.9483" y2="36.8824" stroke="#D100FC"/>
<line x1="45.3276" y1="44" x2="45.3276" y2="36.8824" stroke="#D100FC"/>
<line x1="50.7069" y1="44" x2="50.7069" y2="36.8824" stroke="#D100FC"/>
<rect x="3.58" y="12.0789" width="47.36" height="19.8421" stroke="#B916EC"/>
<path d="M11.3259 23.5863C11.0759 23.5863 10.8493 23.5363 10.6459 23.4363C10.4426 23.333 10.2809 23.1863 10.1609 22.9963C10.0409 22.803 9.98093 22.5696 9.98093 22.2963C9.98093 22.0296 10.0409 21.8013 10.1609 21.6113C10.2809 21.418 10.4376 21.2696 10.6309 21.1663C10.8243 21.063 11.0309 21.0113 11.2509 21.0113C11.4943 21.0113 11.6993 21.0613 11.8659 21.1613C12.0359 21.2613 12.1643 21.3996 12.2509 21.5763C12.3409 21.7496 12.3859 21.9496 12.3859 22.1763C12.3859 22.233 12.3826 22.288 12.3759 22.3413C12.3726 22.3913 12.3676 22.433 12.3609 22.4663H10.3959V22.0563H11.9909L11.8809 22.1863C11.8809 21.943 11.8259 21.7613 11.7159 21.6413C11.6093 21.518 11.4593 21.4563 11.2659 21.4563C11.1293 21.4563 11.0059 21.488 10.8959 21.5513C10.7893 21.6146 10.7043 21.7096 10.6409 21.8363C10.5776 21.9596 10.5459 22.113 10.5459 22.2963C10.5459 22.4863 10.5809 22.643 10.6509 22.7663C10.7243 22.8896 10.8243 22.983 10.9509 23.0463C11.0809 23.1096 11.2309 23.1413 11.4009 23.1413C11.5309 23.1413 11.6509 23.123 11.7609 23.0863C11.8709 23.0496 11.9809 22.9996 12.0909 22.9363L12.2859 23.2963C12.1559 23.3796 12.0093 23.4496 11.8459 23.5063C11.6826 23.5596 11.5093 23.5863 11.3259 23.5863ZM14.374 23.5863C14.0906 23.5863 13.874 23.503 13.724 23.3363C13.5773 23.1663 13.504 22.9313 13.504 22.6313V20.4513H12.704V19.9963H14.079V22.6613C14.079 22.828 14.1206 22.9463 14.204 23.0163C14.2906 23.083 14.3956 23.1163 14.519 23.1163C14.5823 23.1163 14.6473 23.1096 14.714 23.0963C14.7806 23.0796 14.8556 23.0546 14.939 23.0213L15.074 23.4463C14.9573 23.4863 14.8473 23.5196 14.744 23.5463C14.644 23.573 14.5206 23.5863 14.374 23.5863ZM15.327 23.5263L16.217 22.2513L15.387 21.0713H16.012L16.332 21.5363C16.372 21.603 16.4154 21.673 16.462 21.7463C16.512 21.8163 16.5587 21.8863 16.602 21.9563H16.622C16.6587 21.8863 16.6987 21.8146 16.742 21.7413C16.7854 21.668 16.8254 21.598 16.862 21.5313L17.152 21.0713H17.757L16.922 22.3113L17.817 23.5263H17.192L16.837 23.0413C16.7904 22.9746 16.7404 22.903 16.687 22.8263C16.637 22.7496 16.587 22.6763 16.537 22.6063H16.517C16.4737 22.6763 16.4287 22.748 16.382 22.8213C16.3387 22.8946 16.2954 22.9696 16.252 23.0463L15.932 23.5263H15.327ZM19.2851 23.5863C19.0551 23.5863 18.8351 23.5496 18.6251 23.4763C18.4151 23.3996 18.2334 23.3096 18.0801 23.2063L18.3301 22.8413C18.4767 22.938 18.6351 23.0146 18.8051 23.0713C18.9751 23.1246 19.1601 23.1513 19.3601 23.1513C19.5301 23.1513 19.6551 23.123 19.7351 23.0663C19.8184 23.0063 19.8601 22.9363 19.8601 22.8563C19.8601 22.8163 19.8501 22.7796 19.8301 22.7463C19.8134 22.713 19.7817 22.683 19.7351 22.6563C19.6884 22.6263 19.6201 22.598 19.5301 22.5713C19.4401 22.5446 19.3234 22.5163 19.1801 22.4863C18.8534 22.4163 18.6134 22.3213 18.4601 22.2013C18.3067 22.0813 18.2301 21.9296 18.2301 21.7463C18.2301 21.5296 18.3234 21.353 18.5101 21.2163C18.7001 21.0796 18.9667 21.0113 19.3101 21.0113C19.5134 21.0113 19.7034 21.0446 19.8801 21.1113C20.0601 21.178 20.2117 21.253 20.3351 21.3363L20.0701 21.6913C19.9534 21.6113 19.8251 21.5513 19.6851 21.5113C19.5451 21.468 19.4034 21.4463 19.2601 21.4463C19.1501 21.4463 19.0617 21.458 18.9951 21.4813C18.9317 21.5046 18.8834 21.538 18.8501 21.5813C18.8201 21.6213 18.8051 21.6663 18.8051 21.7163C18.8051 21.803 18.8551 21.868 18.9551 21.9113C19.0551 21.9546 19.2184 22.0013 19.4451 22.0513C19.7084 22.108 19.9117 22.173 20.0551 22.2463C20.1984 22.3163 20.2967 22.398 20.3501 22.4913C20.4067 22.5813 20.4351 22.693 20.4351 22.8263C20.4351 22.9663 20.3901 23.0946 20.3001 23.2113C20.2134 23.3246 20.0851 23.4163 19.9151 23.4863C19.7451 23.553 19.5351 23.5863 19.2851 23.5863ZM21.9681 23.5863C21.7515 23.5863 21.5498 23.5363 21.3631 23.4363C21.1765 23.333 21.0248 23.1863 20.9081 22.9963C20.7915 22.803 20.7331 22.5713 20.7331 22.3013C20.7331 22.028 20.7915 21.7963 20.9081 21.6063C21.0248 21.413 21.1765 21.2663 21.3631 21.1663C21.5498 21.063 21.7515 21.0113 21.9681 21.0113C22.1848 21.0113 22.3865 21.063 22.5731 21.1663C22.7598 21.2663 22.9115 21.413 23.0281 21.6063C23.1448 21.7963 23.2031 22.028 23.2031 22.3013C23.2031 22.5713 23.1448 22.803 23.0281 22.9963C22.9115 23.1863 22.7598 23.333 22.5731 23.4363C22.3865 23.5363 22.1848 23.5863 21.9681 23.5863ZM21.9681 23.1163C22.1015 23.1163 22.2165 23.083 22.3131 23.0163C22.4098 22.9496 22.4831 22.8546 22.5331 22.7313C22.5831 22.608 22.6081 22.4646 22.6081 22.3013C22.6081 22.138 22.5831 21.9946 22.5331 21.8713C22.4831 21.748 22.4098 21.653 22.3131 21.5863C22.2165 21.5163 22.1015 21.4813 21.9681 21.4813C21.8348 21.4813 21.7198 21.5163 21.6231 21.5863C21.5298 21.653 21.4565 21.748 21.4031 21.8713C21.3531 21.9946 21.3281 22.138 21.3281 22.3013C21.3281 22.4646 21.3531 22.608 21.4031 22.7313C21.4565 22.8546 21.5298 22.9496 21.6231 23.0163C21.7198 23.083 21.8348 23.1163 21.9681 23.1163ZM24.3062 23.5263V20.9363C24.3062 20.743 24.3428 20.5713 24.4162 20.4213C24.4895 20.268 24.6028 20.1496 24.7562 20.0663C24.9095 19.9796 25.1062 19.9363 25.3462 19.9363C25.4795 19.9363 25.6062 19.9496 25.7262 19.9763C25.8495 19.9996 25.9662 20.0313 26.0762 20.0713L25.9562 20.4963C25.8662 20.4596 25.7778 20.433 25.6912 20.4163C25.6078 20.3996 25.5162 20.3913 25.4162 20.3913C25.2295 20.3913 25.0928 20.438 25.0062 20.5313C24.9195 20.6213 24.8762 20.753 24.8762 20.9263V23.5263H24.3062ZM23.6262 21.5263V21.0963L24.3212 21.0713H25.8112V21.5263H23.6262ZM27.8192 23.5863C27.5692 23.5863 27.3709 23.543 27.2242 23.4563C27.0775 23.3663 26.9725 23.243 26.9092 23.0863C26.8459 22.9296 26.8142 22.748 26.8142 22.5413V21.5263H26.1592V21.0963L26.8392 21.0713L26.9142 20.3013H27.3892V21.0713H28.5092V21.5263H27.3892V22.5363C27.3892 22.6696 27.4075 22.7813 27.4442 22.8713C27.4809 22.958 27.5409 23.023 27.6242 23.0663C27.7075 23.1063 27.8175 23.1263 27.9542 23.1263C28.0609 23.1263 28.1575 23.118 28.2442 23.1013C28.3309 23.0846 28.4142 23.0613 28.4942 23.0313L28.6042 23.4463C28.4942 23.483 28.3759 23.5146 28.2492 23.5413C28.1225 23.5713 27.9792 23.5863 27.8192 23.5863ZM30.0623 21.8863C29.9223 21.8863 29.8039 21.838 29.7073 21.7413C29.6139 21.6446 29.5673 21.5246 29.5673 21.3813C29.5673 21.2346 29.6139 21.1146 29.7073 21.0213C29.8039 20.9246 29.9223 20.8763 30.0623 20.8763C30.2056 20.8763 30.3239 20.9246 30.4173 21.0213C30.5106 21.1146 30.5573 21.2346 30.5573 21.3813C30.5573 21.5246 30.5106 21.6446 30.4173 21.7413C30.3239 21.838 30.2056 21.8863 30.0623 21.8863ZM30.0623 23.5863C29.9223 23.5863 29.8039 23.538 29.7073 23.4413C29.6139 23.3446 29.5673 23.2246 29.5673 23.0813C29.5673 22.9346 29.6139 22.8146 29.7073 22.7213C29.8039 22.6246 29.9223 22.5763 30.0623 22.5763C30.2056 22.5763 30.3239 22.6246 30.4173 22.7213C30.5106 22.8146 30.5573 22.9346 30.5573 23.0813C30.5573 23.2246 30.5106 23.3446 30.4173 23.4413C30.3239 23.538 30.2056 23.5863 30.0623 23.5863ZM34.3284 22.9563L34.5884 22.5613C34.7317 22.6546 34.8767 22.733 35.0234 22.7963C35.1734 22.8563 35.3334 22.8863 35.5034 22.8863C35.6634 22.8863 35.7834 22.8563 35.8634 22.7963C35.9467 22.7363 35.9884 22.6563 35.9884 22.5563C35.9884 22.4696 35.9517 22.398 35.8784 22.3413C35.805 22.2813 35.71 22.228 35.5934 22.1813C35.48 22.1346 35.3584 22.088 35.2284 22.0413C35.0984 21.9913 34.975 21.933 34.8584 21.8663C34.745 21.7963 34.6517 21.7113 34.5784 21.6113C34.505 21.5113 34.4684 21.3863 34.4684 21.2363C34.4684 21.073 34.5117 20.9313 34.5984 20.8113C34.685 20.6913 34.8067 20.5996 34.9634 20.5363C35.1234 20.4696 35.305 20.4363 35.5084 20.4363C35.735 20.4363 35.9234 20.4746 36.0734 20.5513C36.2267 20.628 36.3617 20.7246 36.4784 20.8413L36.1884 21.1763C36.0717 21.0896 35.96 21.023 35.8534 20.9763C35.75 20.9296 35.6217 20.9063 35.4684 20.9063C35.3317 20.9063 35.2234 20.9346 35.1434 20.9913C35.0634 21.048 35.0234 21.1263 35.0234 21.2263C35.0234 21.2996 35.06 21.363 35.1334 21.4163C35.2067 21.4696 35.3017 21.518 35.4184 21.5613C35.535 21.6046 35.6567 21.6513 35.7834 21.7013C35.9134 21.748 36.035 21.8063 36.1484 21.8763C36.265 21.9463 36.36 22.033 36.4334 22.1363C36.51 22.2363 36.5484 22.363 36.5484 22.5163C36.5484 22.6796 36.5017 22.8246 36.4084 22.9513C36.3184 23.078 36.19 23.178 36.0234 23.2513C35.86 23.3213 35.6617 23.3563 35.4284 23.3563C35.3017 23.3563 35.17 23.3396 35.0334 23.3063C34.9 23.2696 34.7717 23.2213 34.6484 23.1613C34.5284 23.1013 34.4217 23.033 34.3284 22.9563ZM35.2834 20.6263V19.7963H35.6834V20.6263H35.2834ZM35.2834 23.1313H35.6834V24.0763H35.2834V23.1313ZM39.6545 24.2863V23.8363H42.0545V24.2863H39.6545Z" fill="#BA0DF9"/>
</svg>
