<svg width="101" height="57" viewBox="0 0 101 57" fill="none" xmlns="http://www.w3.org/2000/svg">
<rect x="11.7604" y="7.72059" width="79.6281" height="41.5588" fill="white" stroke="#5A1D9A" stroke-width="3"/>
<line x1="14.4027" y1="9.22059" x2="14.4027" y2="1.01607e-06" stroke="#5A1D9A" stroke-width="3"/>
<line x1="22.3298" y1="9.22059" x2="22.3298" y2="1.01607e-06" stroke="#5A1D9A" stroke-width="3"/>
<line x1="30.2569" y1="9.22059" x2="30.2569" y2="1.01607e-06" stroke="#5A1D9A" stroke-width="3"/>
<line x1="38.1839" y1="9.22059" x2="38.1839" y2="1.01607e-06" stroke="#5A1D9A" stroke-width="3"/>
<line x1="46.1109" y1="9.22059" x2="46.1109" y2="1.01607e-06" stroke="#5A1D9A" stroke-width="3"/>
<line x1="54.038" y1="9.22059" x2="54.038" y2="1.01607e-06" stroke="#5A1D9A" stroke-width="3"/>
<line x1="61.965" y1="9.22059" x2="61.965" y2="1.01607e-06" stroke="#5A1D9A" stroke-width="3"/>
<line x1="69.8921" y1="9.22059" x2="69.8921" y2="1.01607e-06" stroke="#5A1D9A" stroke-width="3"/>
<line x1="77.8191" y1="9.22059" x2="77.8191" y2="1.01607e-06" stroke="#5A1D9A" stroke-width="3"/>
<line x1="85.7462" y1="9.22059" x2="85.7462" y2="1.01607e-06" stroke="#5A1D9A" stroke-width="3"/>
<line x1="14.4027" y1="57" x2="14.4027" y2="47.7794" stroke="#5A1D9A" stroke-width="3"/>
<line x1="22.3298" y1="57" x2="22.3298" y2="47.7794" stroke="#5A1D9A" stroke-width="3"/>
<line x1="30.2569" y1="57" x2="30.2569" y2="47.7794" stroke="#5A1D9A" stroke-width="3"/>
<line x1="38.1839" y1="57" x2="38.1839" y2="47.7794" stroke="#5A1D9A" stroke-width="3"/>
<line x1="46.1109" y1="57" x2="46.1109" y2="47.7794" stroke="#5A1D9A" stroke-width="3"/>
<line x1="54.038" y1="57" x2="54.038" y2="47.7794" stroke="#5A1D9A" stroke-width="3"/>
<line x1="61.965" y1="57" x2="61.965" y2="47.7794" stroke="#5A1D9A" stroke-width="3"/>
<line x1="69.8921" y1="57" x2="69.8921" y2="47.7794" stroke="#5A1D9A" stroke-width="3"/>
<line x1="77.8191" y1="57" x2="77.8191" y2="47.7794" stroke="#5A1D9A" stroke-width="3"/>
<line x1="85.7462" y1="57" x2="85.7462" y2="47.7794" stroke="#5A1D9A" stroke-width="3"/>
<line y1="-1.5" x2="11.1118" y2="-1.5" transform="matrix(-0.999959 -0.00905246 0.00409023 -0.999992 101 14.9206)" stroke="#5A1D9A" stroke-width="3"/>
<line y1="-1.5" x2="11.1118" y2="-1.5" transform="matrix(-0.999959 -0.00905246 0.00409023 -0.999992 101 24.0406)" stroke="#5A1D9A" stroke-width="3"/>
<line y1="-1.5" x2="11.1118" y2="-1.5" transform="matrix(-0.999959 -0.00905246 0.00409023 -0.999992 101 33.1606)" stroke="#5A1D9A" stroke-width="3"/>
<line y1="-1.5" x2="11.1118" y2="-1.5" transform="matrix(-0.999959 -0.00905246 0.00409023 -0.999992 101 42.2806)" stroke="#5A1D9A" stroke-width="3"/>
<line y1="-1.5" x2="11.1118" y2="-1.5" transform="matrix(-0.999959 -0.00905246 0.00409023 -0.999992 13.2604 14.9206)" stroke="#5A1D9A" stroke-width="3"/>
<line y1="-1.5" x2="11.1118" y2="-1.5" transform="matrix(-0.999959 -0.00905246 0.00409023 -0.999992 12.8773 24.0406)" stroke="#5A1D9A" stroke-width="3"/>
<line y1="-1.5" x2="11.1118" y2="-1.5" transform="matrix(-0.999959 -0.00905246 0.00409023 -0.999992 12.4941 33.1606)" stroke="#5A1D9A" stroke-width="3"/>
<line y1="-1.5" x2="11.1118" y2="-1.5" transform="matrix(-0.999959 -0.00905246 0.00409023 -0.999992 12.111 42.2806)" stroke="#5A1D9A" stroke-width="3"/>
<rect x="17.8255" y="16.5" width="68.2641" height="24" stroke="#5A1D9A" stroke-width="3"/>
<path d="M28.6854 32.096C28.2854 32.096 27.9227 32.016 27.5974 31.856C27.2721 31.6907 27.0134 31.456 26.8214 31.152C26.6294 30.8427 26.5334 30.4693 26.5334 30.032C26.5334 29.6053 26.6294 29.24 26.8214 28.936C27.0134 28.6267 27.2641 28.3893 27.5734 28.224C27.8827 28.0587 28.2134 27.976 28.5654 27.976C28.9547 27.976 29.2827 28.056 29.5494 28.216C29.8214 28.376 30.0267 28.5973 30.1654 28.88C30.3094 29.1573 30.3814 29.4773 30.3814 29.84C30.3814 29.9307 30.3761 30.0187 30.3654 30.104C30.3601 30.184 30.3521 30.2507 30.3414 30.304H27.1974V29.648H29.7494L29.5734 29.856C29.5734 29.4667 29.4854 29.176 29.3094 28.984C29.1387 28.7867 28.8987 28.688 28.5894 28.688C28.3707 28.688 28.1734 28.7387 27.9974 28.84C27.8267 28.9413 27.6907 29.0933 27.5894 29.296C27.4881 29.4933 27.4374 29.7387 27.4374 30.032C27.4374 30.336 27.4934 30.5867 27.6054 30.784C27.7227 30.9813 27.8827 31.1307 28.0854 31.232C28.2934 31.3333 28.5334 31.384 28.8054 31.384C29.0134 31.384 29.2054 31.3547 29.3814 31.296C29.5574 31.2373 29.7334 31.1573 29.9094 31.056L30.2214 31.632C30.0134 31.7653 29.7787 31.8773 29.5174 31.968C29.2561 32.0533 28.9787 32.096 28.6854 32.096ZM33.5623 32.096C33.109 32.096 32.7623 31.9627 32.5223 31.696C32.2876 31.424 32.1703 31.048 32.1703 30.568V27.08H30.8903V26.352H33.0903V30.616C33.0903 30.8827 33.157 31.072 33.2903 31.184C33.429 31.2907 33.597 31.344 33.7943 31.344C33.8956 31.344 33.9996 31.3333 34.1063 31.312C34.213 31.2853 34.333 31.2453 34.4663 31.192L34.6823 31.872C34.4956 31.936 34.3196 31.9893 34.1543 32.032C33.9943 32.0747 33.797 32.096 33.5623 32.096ZM35.0872 32L36.5112 29.96L35.1832 28.072H36.1832L36.6952 28.816C36.7592 28.9227 36.8285 29.0347 36.9032 29.152C36.9832 29.264 37.0578 29.376 37.1272 29.488H37.1592C37.2178 29.376 37.2818 29.2613 37.3512 29.144C37.4205 29.0267 37.4845 28.9147 37.5432 28.808L38.0072 28.072H38.9752L37.6392 30.056L39.0712 32H38.0712L37.5032 31.224C37.4285 31.1173 37.3485 31.0027 37.2632 30.88C37.1832 30.7573 37.1032 30.64 37.0232 30.528H36.9912C36.9218 30.64 36.8498 30.7547 36.7752 30.872C36.7058 30.9893 36.6365 31.1093 36.5672 31.232L36.0552 32H35.0872ZM41.42 32.096C41.052 32.096 40.7 32.0373 40.364 31.92C40.028 31.7973 39.7374 31.6533 39.492 31.488L39.892 30.904C40.1267 31.0587 40.38 31.1813 40.652 31.272C40.924 31.3573 41.22 31.4 41.54 31.4C41.812 31.4 42.012 31.3547 42.14 31.264C42.2734 31.168 42.34 31.056 42.34 30.928C42.34 30.864 42.324 30.8053 42.292 30.752C42.2654 30.6987 42.2147 30.6507 42.14 30.608C42.0654 30.56 41.956 30.5147 41.812 30.472C41.668 30.4293 41.4814 30.384 41.252 30.336C40.7294 30.224 40.3454 30.072 40.1 29.88C39.8547 29.688 39.732 29.4453 39.732 29.152C39.732 28.8053 39.8814 28.5227 40.18 28.304C40.484 28.0853 40.9107 27.976 41.46 27.976C41.7854 27.976 42.0894 28.0293 42.372 28.136C42.66 28.2427 42.9027 28.3627 43.1 28.496L42.676 29.064C42.4894 28.936 42.284 28.84 42.06 28.776C41.836 28.7067 41.6094 28.672 41.38 28.672C41.204 28.672 41.0627 28.6907 40.956 28.728C40.8547 28.7653 40.7774 28.8187 40.724 28.888C40.676 28.952 40.652 29.024 40.652 29.104C40.652 29.2427 40.732 29.3467 40.892 29.416C41.052 29.4853 41.3134 29.56 41.676 29.64C42.0974 29.7307 42.4227 29.8347 42.652 29.952C42.8814 30.064 43.0387 30.1947 43.124 30.344C43.2147 30.488 43.26 30.6667 43.26 30.88C43.26 31.104 43.188 31.3093 43.044 31.496C42.9054 31.6773 42.7 31.824 42.428 31.936C42.156 32.0427 41.82 32.096 41.42 32.096ZM45.7129 32.096C45.3662 32.096 45.0436 32.016 44.7449 31.856C44.4462 31.6907 44.2036 31.456 44.0169 31.152C43.8302 30.8427 43.7369 30.472 43.7369 30.04C43.7369 29.6027 43.8302 29.232 44.0169 28.928C44.2036 28.6187 44.4462 28.384 44.7449 28.224C45.0436 28.0587 45.3662 27.976 45.7129 27.976C46.0596 27.976 46.3822 28.0587 46.6809 28.224C46.9796 28.384 47.2222 28.6187 47.4089 28.928C47.5956 29.232 47.6889 29.6027 47.6889 30.04C47.6889 30.472 47.5956 30.8427 47.4089 31.152C47.2222 31.456 46.9796 31.6907 46.6809 31.856C46.3822 32.016 46.0596 32.096 45.7129 32.096ZM45.7129 31.344C45.9262 31.344 46.1102 31.2907 46.2649 31.184C46.4196 31.0773 46.5369 30.9253 46.6169 30.728C46.6969 30.5307 46.7369 30.3013 46.7369 30.04C46.7369 29.7787 46.6969 29.5493 46.6169 29.352C46.5369 29.1547 46.4196 29.0027 46.2649 28.896C46.1102 28.784 45.9262 28.728 45.7129 28.728C45.4996 28.728 45.3156 28.784 45.1609 28.896C45.0116 29.0027 44.8942 29.1547 44.8089 29.352C44.7289 29.5493 44.6889 29.7787 44.6889 30.04C44.6889 30.3013 44.7289 30.5307 44.8089 30.728C44.8942 30.9253 45.0116 31.0773 45.1609 31.184C45.3156 31.2907 45.4996 31.344 45.7129 31.344ZM49.4538 32V27.856C49.4538 27.5467 49.5125 27.272 49.6298 27.032C49.7471 26.7867 49.9285 26.5973 50.1738 26.464C50.4191 26.3253 50.7338 26.256 51.1178 26.256C51.3311 26.256 51.5338 26.2773 51.7258 26.32C51.9231 26.3573 52.1098 26.408 52.2858 26.472L52.0938 27.152C51.9498 27.0933 51.8085 27.0507 51.6698 27.024C51.5365 26.9973 51.3898 26.984 51.2298 26.984C50.9311 26.984 50.7125 27.0587 50.5738 27.208C50.4351 27.352 50.3658 27.5627 50.3658 27.84V32H49.4538ZM48.3658 28.8V28.112L49.4778 28.072H51.8618V28.8H48.3658ZM55.0747 32.096C54.6747 32.096 54.3573 32.0267 54.1227 31.888C53.888 31.744 53.72 31.5467 53.6187 31.296C53.5173 31.0453 53.4667 30.7547 53.4667 30.424V28.8H52.4187V28.112L53.5067 28.072L53.6267 26.84H54.3867V28.072H56.1787V28.8H54.3867V30.416C54.3867 30.6293 54.416 30.808 54.4747 30.952C54.5333 31.0907 54.6293 31.1947 54.7627 31.264C54.896 31.328 55.072 31.36 55.2907 31.36C55.4613 31.36 55.616 31.3467 55.7547 31.32C55.8933 31.2933 56.0267 31.256 56.1547 31.208L56.3307 31.872C56.1547 31.9307 55.9653 31.9813 55.7627 32.024C55.56 32.072 55.3307 32.096 55.0747 32.096ZM58.6635 29.376C58.4395 29.376 58.2502 29.2987 58.0955 29.144C57.9462 28.9893 57.8715 28.7973 57.8715 28.568C57.8715 28.3333 57.9462 28.1413 58.0955 27.992C58.2502 27.8373 58.4395 27.76 58.6635 27.76C58.8929 27.76 59.0822 27.8373 59.2315 27.992C59.3809 28.1413 59.4555 28.3333 59.4555 28.568C59.4555 28.7973 59.3809 28.9893 59.2315 29.144C59.0822 29.2987 58.8929 29.376 58.6635 29.376ZM58.6635 32.096C58.4395 32.096 58.2502 32.0187 58.0955 31.864C57.9462 31.7093 57.8715 31.5173 57.8715 31.288C57.8715 31.0533 57.9462 30.8613 58.0955 30.712C58.2502 30.5573 58.4395 30.48 58.6635 30.48C58.8929 30.48 59.0822 30.5573 59.2315 30.712C59.3809 30.8613 59.4555 31.0533 59.4555 31.288C59.4555 31.5173 59.3809 31.7093 59.2315 31.864C59.0822 32.0187 58.8929 32.096 58.6635 32.096ZM65.4893 31.088L65.9053 30.456C66.1346 30.6053 66.3666 30.7307 66.6013 30.832C66.8413 30.928 67.0973 30.976 67.3693 30.976C67.6253 30.976 67.8173 30.928 67.9453 30.832C68.0786 30.736 68.1453 30.608 68.1453 30.448C68.1453 30.3093 68.0866 30.1947 67.9693 30.104C67.852 30.008 67.7 29.9227 67.5133 29.848C67.332 29.7733 67.1373 29.6987 66.9293 29.624C66.7213 29.544 66.524 29.4507 66.3373 29.344C66.156 29.232 66.0066 29.096 65.8893 28.936C65.772 28.776 65.7133 28.576 65.7133 28.336C65.7133 28.0747 65.7826 27.848 65.9213 27.656C66.06 27.464 66.2546 27.3173 66.5053 27.216C66.7613 27.1093 67.052 27.056 67.3773 27.056C67.74 27.056 68.0413 27.1173 68.2813 27.24C68.5266 27.3627 68.7426 27.5173 68.9293 27.704L68.4653 28.24C68.2786 28.1013 68.1 27.9947 67.9293 27.92C67.764 27.8453 67.5586 27.808 67.3133 27.808C67.0946 27.808 66.9213 27.8533 66.7933 27.944C66.6653 28.0347 66.6013 28.16 66.6013 28.32C66.6013 28.4373 66.66 28.5387 66.7773 28.624C66.8946 28.7093 67.0466 28.7867 67.2333 28.856C67.42 28.9253 67.6146 29 67.8173 29.08C68.0253 29.1547 68.22 29.248 68.4013 29.36C68.588 29.472 68.74 29.6107 68.8573 29.776C68.98 29.936 69.0413 30.1387 69.0413 30.384C69.0413 30.6453 68.9666 30.8773 68.8173 31.08C68.6733 31.2827 68.468 31.4427 68.2013 31.56C67.94 31.672 67.6226 31.728 67.2493 31.728C67.0466 31.728 66.836 31.7013 66.6173 31.648C66.404 31.5893 66.1986 31.512 66.0013 31.416C65.8093 31.32 65.6386 31.2107 65.4893 31.088ZM67.0173 27.36V26.032H67.6573V27.36H67.0173ZM67.0173 31.368H67.6573V32.88H67.0173V31.368ZM74.011 33.216V32.496H77.851V33.216H74.011Z" fill="#5A1D9A"/>
</svg>
