<svg width="106" height="57" viewBox="0 0 106 57" fill="none" xmlns="http://www.w3.org/2000/svg">
<rect x="1.5" y="7.72059" width="103" height="41.5588" stroke="#B916EC" stroke-width="3"/>
<line x1="4.94827" y1="9.22059" x2="4.94827" y2="1.00149e-06" stroke="#B916EC" stroke-width="3"/>
<line x1="15.2931" y1="9.22059" x2="15.2931" y2="1.00149e-06" stroke="#B916EC" stroke-width="3"/>
<line x1="25.6379" y1="9.22059" x2="25.6379" y2="1.00149e-06" stroke="#B916EC" stroke-width="3"/>
<line x1="35.9828" y1="9.22059" x2="35.9828" y2="1.00149e-06" stroke="#B916EC" stroke-width="3"/>
<line x1="46.3276" y1="9.22059" x2="46.3276" y2="1.00149e-06" stroke="#B916EC" stroke-width="3"/>
<line x1="56.6724" y1="9.22059" x2="56.6724" y2="1.00149e-06" stroke="#B916EC" stroke-width="3"/>
<line x1="67.0172" y1="9.22059" x2="67.0172" y2="1.00149e-06" stroke="#B916EC" stroke-width="3"/>
<line x1="77.3621" y1="9.22059" x2="77.3621" y2="1.00149e-06" stroke="#B916EC" stroke-width="3"/>
<line x1="87.7069" y1="9.22059" x2="87.7069" y2="1.00149e-06" stroke="#B916EC" stroke-width="3"/>
<line x1="98.0517" y1="9.22059" x2="98.0517" y2="1.00149e-06" stroke="#B916EC" stroke-width="3"/>
<line x1="4.94827" y1="57" x2="4.94827" y2="47.7794" stroke="#B916EC" stroke-width="3"/>
<line x1="15.2931" y1="57" x2="15.2931" y2="47.7794" stroke="#B916EC" stroke-width="3"/>
<line x1="25.6379" y1="57" x2="25.6379" y2="47.7794" stroke="#B916EC" stroke-width="3"/>
<line x1="35.9828" y1="57" x2="35.9828" y2="47.7794" stroke="#B916EC" stroke-width="3"/>
<line x1="46.3276" y1="57" x2="46.3276" y2="47.7794" stroke="#B916EC" stroke-width="3"/>
<line x1="56.6724" y1="57" x2="56.6724" y2="47.7794" stroke="#B916EC" stroke-width="3"/>
<line x1="67.0172" y1="57" x2="67.0172" y2="47.7794" stroke="#B916EC" stroke-width="3"/>
<line x1="77.3621" y1="57" x2="77.3621" y2="47.7794" stroke="#B916EC" stroke-width="3"/>
<line x1="87.7069" y1="57" x2="87.7069" y2="47.7794" stroke="#B916EC" stroke-width="3"/>
<line x1="98.0517" y1="57" x2="98.0517" y2="47.7794" stroke="#B916EC" stroke-width="3"/>
<rect x="8.5" y="16.5" width="90" height="24" stroke="#B916EC" stroke-width="3"/>
<path d="M22.9845 34.12C22.4845 34.12 22.0312 34.02 21.6245 33.82C21.2178 33.6133 20.8945 33.32 20.6545 32.94C20.4145 32.5533 20.2945 32.0867 20.2945 31.54C20.2945 31.0067 20.4145 30.55 20.6545 30.17C20.8945 29.7833 21.2078 29.4867 21.5945 29.28C21.9812 29.0733 22.3945 28.97 22.8345 28.97C23.3212 28.97 23.7312 29.07 24.0645 29.27C24.4045 29.47 24.6612 29.7467 24.8345 30.1C25.0145 30.4467 25.1045 30.8467 25.1045 31.3C25.1045 31.4133 25.0978 31.5233 25.0845 31.63C25.0778 31.73 25.0678 31.8133 25.0545 31.88H21.1245V31.06H24.3145L24.0945 31.32C24.0945 30.8333 23.9845 30.47 23.7645 30.23C23.5512 29.9833 23.2512 29.86 22.8645 29.86C22.5912 29.86 22.3445 29.9233 22.1245 30.05C21.9112 30.1767 21.7412 30.3667 21.6145 30.62C21.4878 30.8667 21.4245 31.1733 21.4245 31.54C21.4245 31.92 21.4945 32.2333 21.6345 32.48C21.7812 32.7267 21.9812 32.9133 22.2345 33.04C22.4945 33.1667 22.7945 33.23 23.1345 33.23C23.3945 33.23 23.6345 33.1933 23.8545 33.12C24.0745 33.0467 24.2945 32.9467 24.5145 32.82L24.9045 33.54C24.6445 33.7067 24.3512 33.8467 24.0245 33.96C23.6978 34.0667 23.3512 34.12 22.9845 34.12ZM29.0806 34.12C28.5139 34.12 28.0806 33.9533 27.7806 33.62C27.4873 33.28 27.3406 32.81 27.3406 32.21V27.85H25.7406V26.94H28.4906V32.27C28.4906 32.6033 28.5739 32.84 28.7406 32.98C28.9139 33.1133 29.1239 33.18 29.3706 33.18C29.4973 33.18 29.6273 33.1667 29.7606 33.14C29.8939 33.1067 30.0439 33.0567 30.2106 32.99L30.4806 33.84C30.2473 33.92 30.0273 33.9867 29.8206 34.04C29.6206 34.0933 29.3739 34.12 29.0806 34.12ZM30.9867 34L32.7667 31.45L31.1067 29.09H32.3567L32.9967 30.02C33.0767 30.1533 33.1633 30.2933 33.2567 30.44C33.3567 30.58 33.45 30.72 33.5367 30.86H33.5767C33.65 30.72 33.73 30.5767 33.8167 30.43C33.9033 30.2833 33.9833 30.1433 34.0567 30.01L34.6367 29.09H35.8467L34.1767 31.57L35.9667 34H34.7167L34.0067 33.03C33.9133 32.8967 33.8133 32.7533 33.7067 32.6C33.6067 32.4467 33.5067 32.3 33.4067 32.16H33.3667C33.28 32.3 33.19 32.4433 33.0967 32.59C33.01 32.7367 32.9233 32.8867 32.8367 33.04L32.1967 34H30.9867ZM38.9028 34.12C38.4428 34.12 38.0028 34.0467 37.5828 33.9C37.1628 33.7467 36.7994 33.5667 36.4928 33.36L36.9928 32.63C37.2861 32.8233 37.6028 32.9767 37.9428 33.09C38.2828 33.1967 38.6528 33.25 39.0528 33.25C39.3928 33.25 39.6428 33.1933 39.8028 33.08C39.9694 32.96 40.0528 32.82 40.0528 32.66C40.0528 32.58 40.0328 32.5067 39.9928 32.44C39.9594 32.3733 39.8961 32.3133 39.8028 32.26C39.7094 32.2 39.5728 32.1433 39.3928 32.09C39.2128 32.0367 38.9794 31.98 38.6928 31.92C38.0394 31.78 37.5594 31.59 37.2528 31.35C36.9461 31.11 36.7928 30.8067 36.7928 30.44C36.7928 30.0067 36.9794 29.6533 37.3528 29.38C37.7328 29.1067 38.2661 28.97 38.9528 28.97C39.3594 28.97 39.7394 29.0367 40.0928 29.17C40.4528 29.3033 40.7561 29.4533 41.0028 29.62L40.4728 30.33C40.2394 30.17 39.9828 30.05 39.7028 29.97C39.4228 29.8833 39.1394 29.84 38.8528 29.84C38.6328 29.84 38.4561 29.8633 38.3228 29.91C38.1961 29.9567 38.0994 30.0233 38.0328 30.11C37.9728 30.19 37.9428 30.28 37.9428 30.38C37.9428 30.5533 38.0428 30.6833 38.2428 30.77C38.4428 30.8567 38.7694 30.95 39.2228 31.05C39.7494 31.1633 40.1561 31.2933 40.4428 31.44C40.7294 31.58 40.9261 31.7433 41.0328 31.93C41.1461 32.11 41.2028 32.3333 41.2028 32.6C41.2028 32.88 41.1128 33.1367 40.9328 33.37C40.7594 33.5967 40.5028 33.78 40.1628 33.92C39.8228 34.0533 39.4028 34.12 38.9028 34.12ZM44.2689 34.12C43.8355 34.12 43.4322 34.02 43.0589 33.82C42.6855 33.6133 42.3822 33.32 42.1489 32.94C41.9155 32.5533 41.7989 32.09 41.7989 31.55C41.7989 31.0033 41.9155 30.54 42.1489 30.16C42.3822 29.7733 42.6855 29.48 43.0589 29.28C43.4322 29.0733 43.8355 28.97 44.2689 28.97C44.7022 28.97 45.1055 29.0733 45.4789 29.28C45.8522 29.48 46.1555 29.7733 46.3889 30.16C46.6222 30.54 46.7389 31.0033 46.7389 31.55C46.7389 32.09 46.6222 32.5533 46.3889 32.94C46.1555 33.32 45.8522 33.6133 45.4789 33.82C45.1055 34.02 44.7022 34.12 44.2689 34.12ZM44.2689 33.18C44.5355 33.18 44.7655 33.1133 44.9589 32.98C45.1522 32.8467 45.2989 32.6567 45.3989 32.41C45.4989 32.1633 45.5489 31.8767 45.5489 31.55C45.5489 31.2233 45.4989 30.9367 45.3989 30.69C45.2989 30.4433 45.1522 30.2533 44.9589 30.12C44.7655 29.98 44.5355 29.91 44.2689 29.91C44.0022 29.91 43.7722 29.98 43.5789 30.12C43.3922 30.2533 43.2455 30.4433 43.1389 30.69C43.0389 30.9367 42.9889 31.2233 42.9889 31.55C42.9889 31.8767 43.0389 32.1633 43.1389 32.41C43.2455 32.6567 43.3922 32.8467 43.5789 32.98C43.7722 33.1133 44.0022 33.18 44.2689 33.18ZM48.945 34V28.82C48.945 28.4333 49.0183 28.09 49.165 27.79C49.3116 27.4833 49.5383 27.2467 49.845 27.08C50.1516 26.9067 50.545 26.82 51.025 26.82C51.2916 26.82 51.545 26.8467 51.785 26.9C52.0316 26.9467 52.265 27.01 52.485 27.09L52.245 27.94C52.065 27.8667 51.8883 27.8133 51.715 27.78C51.5483 27.7467 51.365 27.73 51.165 27.73C50.7916 27.73 50.5183 27.8233 50.345 28.01C50.1716 28.19 50.085 28.4533 50.085 28.8V34H48.945ZM47.585 30V29.14L48.975 29.09H51.955V30H47.585ZM55.9711 34.12C55.4711 34.12 55.0744 34.0333 54.7811 33.86C54.4877 33.68 54.2777 33.4333 54.1511 33.12C54.0244 32.8067 53.9611 32.4433 53.9611 32.03V30H52.6511V29.14L54.0111 29.09L54.1611 27.55H55.1111V29.09H57.3511V30H55.1111V32.02C55.1111 32.2867 55.1477 32.51 55.2211 32.69C55.2944 32.8633 55.4144 32.9933 55.5811 33.08C55.7477 33.16 55.9677 33.2 56.2411 33.2C56.4544 33.2 56.6477 33.1833 56.8211 33.15C56.9944 33.1167 57.1611 33.07 57.3211 33.01L57.5411 33.84C57.3211 33.9133 57.0844 33.9767 56.8311 34.03C56.5777 34.09 56.2911 34.12 55.9711 34.12ZM60.4571 30.72C60.1771 30.72 59.9405 30.6233 59.7471 30.43C59.5605 30.2367 59.4671 29.9967 59.4671 29.71C59.4671 29.4167 59.5605 29.1767 59.7471 28.99C59.9405 28.7967 60.1771 28.7 60.4571 28.7C60.7438 28.7 60.9805 28.7967 61.1671 28.99C61.3538 29.1767 61.4471 29.4167 61.4471 29.71C61.4471 29.9967 61.3538 30.2367 61.1671 30.43C60.9805 30.6233 60.7438 30.72 60.4571 30.72ZM60.4571 34.12C60.1771 34.12 59.9405 34.0233 59.7471 33.83C59.5605 33.6367 59.4671 33.3967 59.4671 33.11C59.4671 32.8167 59.5605 32.5767 59.7471 32.39C59.9405 32.1967 60.1771 32.1 60.4571 32.1C60.7438 32.1 60.9805 32.1967 61.1671 32.39C61.3538 32.5767 61.4471 32.8167 61.4471 33.11C61.4471 33.3967 61.3538 33.6367 61.1671 33.83C60.9805 34.0233 60.7438 34.12 60.4571 34.12ZM68.9893 32.86L69.5093 32.07C69.796 32.2567 70.086 32.4133 70.3793 32.54C70.6793 32.66 70.9993 32.72 71.3393 32.72C71.6593 32.72 71.8993 32.66 72.0593 32.54C72.226 32.42 72.3093 32.26 72.3093 32.06C72.3093 31.8867 72.236 31.7433 72.0893 31.63C71.9427 31.51 71.7527 31.4033 71.5193 31.31C71.2927 31.2167 71.0493 31.1233 70.7893 31.03C70.5293 30.93 70.2827 30.8133 70.0493 30.68C69.8227 30.54 69.636 30.37 69.4893 30.17C69.3427 29.97 69.2693 29.72 69.2693 29.42C69.2693 29.0933 69.356 28.81 69.5293 28.57C69.7027 28.33 69.946 28.1467 70.2593 28.02C70.5793 27.8867 70.9427 27.82 71.3493 27.82C71.8027 27.82 72.1793 27.8967 72.4793 28.05C72.786 28.2033 73.056 28.3967 73.2893 28.63L72.7093 29.3C72.476 29.1267 72.2527 28.9933 72.0393 28.9C71.8327 28.8067 71.576 28.76 71.2693 28.76C70.996 28.76 70.7793 28.8167 70.6193 28.93C70.4593 29.0433 70.3793 29.2 70.3793 29.4C70.3793 29.5467 70.4527 29.6733 70.5993 29.78C70.746 29.8867 70.936 29.9833 71.1693 30.07C71.4027 30.1567 71.646 30.25 71.8993 30.35C72.1593 30.4433 72.4027 30.56 72.6293 30.7C72.8627 30.84 73.0527 31.0133 73.1993 31.22C73.3527 31.42 73.4293 31.6733 73.4293 31.98C73.4293 32.3067 73.336 32.5967 73.1493 32.85C72.9693 33.1033 72.7127 33.3033 72.3793 33.45C72.0527 33.59 71.656 33.66 71.1893 33.66C70.936 33.66 70.6727 33.6267 70.3993 33.56C70.1327 33.4867 69.876 33.39 69.6293 33.27C69.3893 33.15 69.176 33.0133 68.9893 32.86ZM70.8993 28.2V26.54H71.6993V28.2H70.8993ZM70.8993 33.21H71.6993V35.1H70.8993V33.21ZM79.6415 35.52V34.62H84.4415V35.52H79.6415Z" fill="#B916EC"/>
</svg>
